name rise30.2954peak35.7071fall66.7804.mot
datacolumns 19
datarows 32
range 9.41829800000000 9.46996400000000
endheader
time	ground_force1_vx	ground_force1_vy	ground_force1_vz	ground_force1_px	ground_force1_py	ground_force1_pz	ground_force2_vx	ground_force2_vy	ground_force2_vz	ground_force2_px	ground_force2_py	ground_force2_pz	ground_torque1_x	ground_torque1_y	ground_torque1_z	ground_torque2_x	ground_torque2_y	ground_torque2_z	
9.41829800000000	-5.05717000000000	42.13126500000000	-10.77275700000000	0.32779000000000	0.00000000000000	0.09931000000000	-48.88514600000000	815.55084399999998	-50.30392500000000	0.14928900000000	0.00000000000000	-0.06872900000000	0.00000000000000	-7.58471900000000	0.00000000000000	0.00000000000000	-20.02652000000000	0.00000000000000	
9.41996500000000	-5.52114400000000	49.30556000000000	-12.16304400000000	0.33438800000000	0.00000000000000	0.10010500000000	-50.00048400000000	813.53615000000002	-50.15156400000000	0.14833800000000	0.00000000000000	-0.06863000000000	0.00000000000000	-8.66193900000000	0.00000000000000	0.00000000000000	-20.02483800000000	0.00000000000000	
9.42163100000000	-5.87978500000000	56.54798700000000	-13.44394500000000	0.34036300000000	0.00000000000000	0.10083200000000	-51.13398000000000	811.35965199999998	-49.98231800000000	0.14739600000000	0.00000000000000	-0.06852900000000	0.00000000000000	-9.67809200000000	0.00000000000000	0.00000000000000	-20.02454200000000	0.00000000000000	
9.42330100000000	-6.11806200000000	63.76264700000000	-14.58699000000000	0.34580300000000	0.00000000000000	0.10150500000000	-52.28432600000000	809.01686500000005	-49.79553900000000	0.14646300000000	0.00000000000000	-0.06842600000000	0.00000000000000	-10.61052600000000	0.00000000000000	0.00000000000000	-20.02542500000000	0.00000000000000	
9.42497100000000	-6.22664900000000	70.87720200000000	-15.57291200000000	0.35078000000000	0.00000000000000	0.10212900000000	-53.45009600000000	806.50336000000004	-49.59058500000000	0.14554100000000	0.00000000000000	-0.06832000000000	0.00000000000000	-11.44308700000000	0.00000000000000	0.00000000000000	-20.02725900000000	0.00000000000000	
9.42663100000000	-6.20186100000000	77.84503700000000	-16.39183200000000	0.35535400000000	0.00000000000000	0.10271400000000	-54.62974100000000	803.81477600000005	-49.36682400000000	0.14462800000000	0.00000000000000	-0.06821300000000	0.00000000000000	-12.16645100000000	0.00000000000000	0.00000000000000	-20.02979900000000	0.00000000000000	
9.42829900000000	-6.04514200000000	84.64496400000000	-17.04263200000000	0.35957300000000	0.00000000000000	0.10326400000000	-55.82159100000000	800.94683599999996	-49.12363600000000	0.14372500000000	0.00000000000000	-0.06810200000000	0.00000000000000	-12.77783500000000	0.00000000000000	0.00000000000000	-20.03277900000000	0.00000000000000	
9.42996700000000	-5.76222700000000	91.27887800000001	-17.53173500000000	0.36347800000000	0.00000000000000	0.10378500000000	-57.02386100000000	797.89535799999999	-48.86042000000000	0.14283200000000	0.00000000000000	-0.06799000000000	0.00000000000000	-13.28022000000000	0.00000000000000	0.00000000000000	-20.03591800000000	0.00000000000000	
9.43163200000000	-5.36209900000000	97.76791799999999	-17.87146300000000	0.36710100000000	0.00000000000000	0.10427900000000	-58.23464700000000	794.65627099999995	-48.57659500000000	0.14194900000000	0.00000000000000	-0.06787500000000	0.00000000000000	-13.68122600000000	0.00000000000000	0.00000000000000	-20.03891600000000	0.00000000000000	
9.43329900000000	-4.85586900000000	104.14772400000000	-18.07820700000000	0.37047200000000	0.00000000000000	0.10475100000000	-59.45192900000000	791.22563000000002	-48.27160500000000	0.14107500000000	0.00000000000000	-0.06775800000000	0.00000000000000	-13.99180000000000	0.00000000000000	0.00000000000000	-20.04145700000000	0.00000000000000	
9.43496600000000	-4.25567500000000	110.46332600000000	-18.17057900000000	0.37361500000000	0.00000000000000	0.10520300000000	-60.67357900000000	787.59962700000005	-47.94492200000000	0.14021000000000	0.00000000000000	-0.06763800000000	0.00000000000000	-14.22485400000000	0.00000000000000	0.00000000000000	-20.04321200000000	0.00000000000000	
9.43663200000000	-3.57369900000000	116.76415000000000	-18.16770400000000	0.37655200000000	0.00000000000000	0.10563700000000	-61.89735800000000	783.77461200000005	-47.59605000000000	0.13935400000000	0.00000000000000	-0.06751700000000	0.00000000000000	-14.39397900000000	0.00000000000000	0.00000000000000	-20.04383400000000	0.00000000000000	
9.43830600000000	-2.82134900000000	123.09952699999999	-18.08776900000000	0.37929900000000	0.00000000000000	0.10605600000000	-63.12092300000000	779.74710600000003	-47.22453200000000	0.13850700000000	0.00000000000000	-0.06739200000000	0.00000000000000	-14.51232100000000	0.00000000000000	0.00000000000000	-20.04296700000000	0.00000000000000	
9.43996600000000	-2.00864800000000	129.51495700000001	-17.94688800000000	0.38187400000000	0.00000000000000	0.10646000000000	-64.34183200000000	775.51381400000002	-46.82994900000000	0.13766800000000	0.00000000000000	-0.06726600000000	0.00000000000000	-14.59169100000000	0.00000000000000	0.00000000000000	-20.04024100000000	0.00000000000000	
9.44163900000000	-1.14383900000000	136.04929500000000	-17.75832900000000	0.38429000000000	0.00000000000000	0.10685300000000	-65.55754800000000	771.07164899999998	-46.41192700000000	0.13683800000000	0.00000000000000	-0.06713700000000	0.00000000000000	-14.64192200000000	0.00000000000000	0.00000000000000	-20.03527800000000	0.00000000000000	
9.44329900000000	-0.23319500000000	142.73291499999999	-17.53208800000000	0.38655800000000	0.00000000000000	0.10723300000000	-66.76544800000001	766.41774199999998	-45.97014000000000	0.13601600000000	0.00000000000000	-0.06700600000000	0.00000000000000	-14.67050400000000	0.00000000000000	0.00000000000000	-20.02768900000000	0.00000000000000	
9.44497200000000	0.71897500000000	149.58679699999999	-17.27478700000000	0.38868900000000	0.00000000000000	0.10760400000000	-67.96282200000000	761.54946299999995	-45.50431100000000	0.13520200000000	0.00000000000000	-0.06687200000000	0.00000000000000	-14.68245000000000	0.00000000000000	0.00000000000000	-20.01707900000000	0.00000000000000	
9.44663900000000	1.71018300000000	156.62245999999999	-16.98983800000000	0.39069400000000	0.00000000000000	0.10796500000000	-69.14688700000001	756.46443899999997	-45.01422000000000	0.13439500000000	0.00000000000000	-0.06673600000000	0.00000000000000	-14.68038400000000	0.00000000000000	0.00000000000000	-20.00304600000000	0.00000000000000	
9.44831500000000	2.73948900000000	163.84258100000000	-16.67783000000000	0.39257900000000	0.00000000000000	0.10831700000000	-70.31479200000000	751.16057000000001	-44.49970300000000	0.13359600000000	0.00000000000000	-0.06659800000000	0.00000000000000	-14.66478900000000	0.00000000000000	0.00000000000000	-19.98518400000000	0.00000000000000	
9.44996400000000	3.80717100000000	171.24212800000001	-16.33704200000000	0.39435300000000	0.00000000000000	0.10866100000000	-71.46362300000000	745.63604699999996	-43.96065600000000	0.13280300000000	0.00000000000000	-0.06645700000000	0.00000000000000	-14.63437700000000	0.00000000000000	0.00000000000000	-19.96308500000000	0.00000000000000	
9.45163300000000	4.91434900000000	178.80982499999999	-15.96404400000000	0.39602200000000	0.00000000000000	0.10899800000000	-72.59041600000000	739.88936799999999	-43.39704000000000	0.13201700000000	0.00000000000000	-0.06631500000000	0.00000000000000	-14.58652400000000	0.00000000000000	0.00000000000000	-19.93633900000000	0.00000000000000	
9.45330600000000	6.06261700000000	186.52979099999999	-15.55431800000000	0.39759100000000	0.00000000000000	0.10932800000000	-73.69216000000000	733.91935799999999	-42.80887800000000	0.13123800000000	0.00000000000000	-0.06616900000000	0.00000000000000	-14.51772900000000	0.00000000000000	0.00000000000000	-19.90453700000000	0.00000000000000	
9.45497200000000	7.25369900000000	194.38318500000000	-15.10284500000000	0.39906700000000	0.00000000000000	0.10965100000000	-74.76581000000000	727.72517900000003	-42.19626100000000	0.13046400000000	0.00000000000000	-0.06602200000000	0.00000000000000	-14.42406100000000	0.00000000000000	0.00000000000000	-19.86727200000000	0.00000000000000	
9.45663400000000	8.48915100000000	202.34973900000000	-14.60462500000000	0.40045300000000	0.00000000000000	0.10996800000000	-75.80829600000000	721.30634999999995	-41.55935300000000	0.12969600000000	0.00000000000000	-0.06587200000000	0.00000000000000	-14.30155100000000	0.00000000000000	0.00000000000000	-19.82414000000000	0.00000000000000	
9.45830200000000	9.77013100000000	210.40910299999999	-14.05510400000000	0.40175500000000	0.00000000000000	0.11027900000000	-76.81652800000001	714.66275399999995	-40.89838300000000	0.12893300000000	0.00000000000000	-0.06571900000000	0.00000000000000	-14.14652500000000	0.00000000000000	0.00000000000000	-19.77474400000000	0.00000000000000	
9.45996300000000	11.09722500000000	218.54191200000000	-13.45049800000000	0.40297500000000	0.00000000000000	0.11058400000000	-77.78741200000000	707.79465000000005	-40.21365800000000	0.12817500000000	0.00000000000000	-0.06556500000000	0.00000000000000	-13.95585700000000	0.00000000000000	0.00000000000000	-19.71869300000000	0.00000000000000	
9.46163200000000	12.47035200000000	226.73058399999999	-12.78800100000000	0.40411700000000	0.00000000000000	0.11088400000000	-78.71785600000000	700.70268199999998	-39.50555600000000	0.12742200000000	0.00000000000000	-0.06540800000000	0.00000000000000	-13.72713600000000	0.00000000000000	0.00000000000000	-19.65560500000000	0.00000000000000	
9.46330600000000	13.88871900000000	234.95981900000001	-12.06589700000000	0.40518400000000	0.00000000000000	0.11117800000000	-79.60478200000000	693.38788299999999	-38.77453000000000	0.12667300000000	0.00000000000000	-0.06524900000000	0.00000000000000	-13.45875800000000	0.00000000000000	0.00000000000000	-19.58510800000000	0.00000000000000	
9.46496700000000	15.35083800000000	243.21683600000000	-11.28357200000000	0.40617900000000	0.00000000000000	0.11146700000000	-80.44513700000000	685.85167999999999	-38.02111100000000	0.12592700000000	0.00000000000000	-0.06508700000000	0.00000000000000	-13.14994400000000	0.00000000000000	0.00000000000000	-19.50684300000000	0.00000000000000	
9.46663200000000	16.85457600000000	251.49137800000000	-10.44145800000000	0.40710400000000	0.00000000000000	0.11175100000000	-81.23590200000000	678.09589300000005	-37.24590700000000	0.12518500000000	0.00000000000000	-0.06492300000000	0.00000000000000	-12.80070200000000	0.00000000000000	0.00000000000000	-19.42046600000000	0.00000000000000	
9.46830100000000	18.39724600000000	259.77553699999999	-9.54091700000000	0.40796200000000	0.00000000000000	0.11203000000000	-81.97410700000000	670.12273400000004	-36.44960100000000	0.12444700000000	0.00000000000000	-0.06475600000000	0.00000000000000	-12.41174400000000	0.00000000000000	0.00000000000000	-19.32564800000000	0.00000000000000	
9.46996400000000	19.97570400000000	268.06344600000000	-8.58409300000000	0.40875500000000	0.00000000000000	0.11230300000000	-82.65683900000001	661.93480999999997	-35.63295900000000	0.12371100000000	0.00000000000000	-0.06458800000000	0.00000000000000	-11.98437700000000	0.00000000000000	0.00000000000000	-19.22207600000000	0.00000000000000	
